<?xml version="1.0" standalone="no"?><!DOCTYPE svg PUBLIC "-//W3C//DTD SVG 1.1//EN" "http://www.w3.org/Graphics/SVG/1.1/DTD/svg11.dtd"><svg t="1726823943113" class="icon" viewBox="0 0 1342 1024" version="1.1" xmlns="http://www.w3.org/2000/svg" p-id="12091" xmlns:xlink="http://www.w3.org/1999/xlink" width="62.90625" height="48"><path d="M910.390303 129.582545h-33.776485v35.878788c0 9.572848-7.501576 17.539879-16.508121 17.539879s-16.523636-7.96703-16.523636-17.532121v-35.886546h-33.768728c-9.006545 0-16.515879-7.974788-16.515878-17.539878 0-9.572848 7.509333-17.539879 16.515878-17.539879h33.776485V58.616242c0-9.565091 7.509333-17.532121 16.515879-17.532121 8.998788 0 16.508121 7.96703 16.508121 17.532121v35.886546h33.776485c9.006545 0 16.523636 7.96703 16.523636 17.532121 0 8.773818-7.517091 16.756364-16.523636 17.547636z m220.059152 338.315637h22.962424v-22.954667c0-6.128485 5.360485-11.481212 11.481212-11.481212 6.128485 0 11.481212 5.352727 11.481212 11.481212v22.962424h22.962424c6.128485 0 11.481212 5.352727 11.481212 11.481213 0 6.11297-5.352727 11.473455-11.481212 11.473454h-22.962424v22.962424c0 6.120727-5.352727 11.481212-11.481212 11.481212-6.120727 0-11.481212-5.360485-11.481212-11.481212v-22.962424h-22.962424c-6.128485 0-11.481212-5.352727-11.481213-11.481212 0.768-6.888727 5.352727-11.481212 11.481213-11.481212zM184.754424 244.573091c0-6.120727 5.352727-11.481212 11.481212-11.481212s11.481212 5.360485 11.481212 11.481212v22.962424h22.962425c6.128485 0 11.481212 5.352727 11.481212 11.481212 0 6.120727-5.352727 11.481212-11.481212 11.481212h-22.962425v22.954667c0 6.128485-5.352727 11.481212-11.481212 11.481212s-11.481212-5.352727-11.481212-11.481212v-22.962424h-22.962424c-6.128485 0-11.481212-5.352727-11.481212-11.481212 0-6.120727 5.352727-11.481212 11.481212-11.481212h22.962424v-22.954667zM1024 827.329939a43.644121 43.644121 0 0 1 43.830303-43.814787c24.343273 0 43.830303 19.471515 43.830303 43.814787a43.644121 43.644121 0 0 1-43.830303 43.822546 43.644121 43.644121 0 0 1-43.830303-43.822546z m54.256485 0c0-5.787152-4.63903-10.418424-10.426182-10.418424-5.794909 0-10.426182 4.631273-10.426182 10.418424 0 5.794909 4.631273 10.426182 10.426182 10.426182 5.787152 0 10.426182-4.631273 10.426182-10.426182zM209.082182 107.869091a50.214788 50.214788 0 0 1-50.424243-50.424243c0-28.012606 22.419394-50.424242 50.424243-50.424242 28.012606 0 50.424242 22.411636 50.424242 50.424242 0 28.004848-22.411636 50.424242-50.424242 50.424243z m0-77.575758a27.035152 27.035152 0 0 0-27.151515 27.151515c0 15.080727 12.070788 27.151515 27.151515 27.151516 15.088485 0 27.151515-12.070788 27.151515-27.151516 0-15.088485-12.06303-27.151515-27.151515-27.151515zM45.924848 683.923394c25.266424 0 45.924848 20.658424 45.924849 45.917091 0 25.250909-20.658424 45.917091-45.924849 45.917091C20.666182 775.757576 0 755.091394 0 729.840485c0-26.018909 20.666182-45.924848 45.924848-45.924849z m0.302546 74.550303c16.391758 0 28.928-12.536242 28.928-28.935758 0-16.384-12.536242-28.920242-28.935758-28.920242-16.391758 0-28.928 12.536242-28.928 28.928s13.498182 28.920242 28.935758 28.920242z" fill="#D4D4D4" p-id="12092"></path><path d="M240.484848 992.969697h659.39394a15.515152 15.515152 0 0 1 0 31.030303H240.484848a15.515152 15.515152 0 0 1 0-31.030303zM1016.242424 992.969697h186.181818a15.515152 15.515152 0 0 1 0 31.030303h-186.181818a15.515152 15.515152 0 0 1 0-31.030303zM162.909091 853.333333h124.121212a15.515152 15.515152 0 0 1 0 31.030303H162.909091a15.515152 15.515152 0 0 1 0-31.030303zM1016.242424 853.333333h186.181818a15.515152 15.515152 0 0 1 0 31.030303h-186.181818a15.515152 15.515152 0 0 1 0-31.030303z" fill="#D4D4D4" p-id="12093"></path><path d="M15.515152 992.969697m15.515151 0l93.090909 0q15.515152 0 15.515152 15.515151l0 0q0 15.515152-15.515152 15.515152l-93.090909 0q-15.515152 0-15.515151-15.515152l0 0q0-15.515152 15.515151-15.515151Z" fill="#D4D4D4" p-id="12094"></path><path d="M1293.141333 853.333333H1326.545455a15.515152 15.515152 0 0 1 0 31.030303h-33.404122a15.515152 15.515152 0 1 1 0-31.030303z" fill="#D4D4D4" p-id="12095"></path><path d="M814.041212 656.034909c-61.284848 97.776485-141.110303 171.706182-146.509576 176.678788l-11.931151 10.891636-12.024243-10.728727c-8.843636-7.982545-217.103515-196.313212-217.103515-380.928C426.472727 331.046788 529.221818 232.727273 655.515152 232.727273c126.285576 0 229.042424 98.319515 229.042424 219.221333 0 15.90303-1.629091 31.914667-4.608 47.887515a84.813576 84.813576 0 0 0-35.746909-10.876121c1.792-11.364848 2.753939-22.690909 2.753939-33.900606 0-100.522667-85.845333-182.272-191.441454-182.272S464.073697 354.536727 464.073697 455.059394c0 143.127273 147.828364 296.517818 191.270788 338.470788 24.188121-23.854545 81.027879-83.099152 126.564848-154.996364a85.162667 85.162667 0 0 0 32.131879 17.501091zM1039.515152 840.587636C1039.515152 920.226909 846.351515 961.939394 655.515152 961.939394S271.515152 920.226909 271.515152 840.587636c0-70.671515 148.774788-100.150303 212.821333-109.536969 9.44097-1.380848 18.284606 7.059394 19.657697 16.802909 1.373091 9.735758-5.236364 20.51103-14.770424 21.891879-133.236364 19.564606-178.649212 52.487758-178.649213 70.842181 0 34.986667 131.777939 82.307879 344.940607 82.307879 213.162667 0 344.940606-47.321212 344.940606-82.307879 0-18.525091-45.847273-51.626667-180.363637-71.105939-9.541818-1.373091-16.143515-12.148364-14.770424-21.798788 1.373091-9.743515 10.216727-18.191515 19.657697-16.896 64.465455 9.309091 214.535758 38.694788 214.535758 109.800727zM655.515152 336.795152c59.834182 0 108.427636 49.726061 108.512969 110.917818 0 61.191758-48.678788 110.925576-108.512969 110.925575-59.748848 0-108.427636-49.726061-108.427637-110.925575 0-61.191758 48.678788-110.917818 108.427637-110.917818z m0 182.458181c38.547394 0 69.973333-32.062061 70.050909-71.625697 0-39.470545-31.418182-71.617939-70.050909-71.617939-38.547394 0-69.973333 32.147394-69.973334 71.617939 0 39.478303 31.425939 71.625697 69.973334 71.625697z" fill="#D4D4D4" p-id="12096"></path><path d="M875.085576 544.248242c2.024727 1.621333 2.024727 4.258909 0 5.880243l-67.180606 53.744485a6.159515 6.159515 0 0 1-7.354182 0c-2.024727-1.621333-2.024727-4.258909 0-5.880243l67.180606-53.744485a6.159515 6.159515 0 0 1 7.354182 0z" fill="#D4D4D4" p-id="12097"></path><path d="M800.550788 544.248242a6.159515 6.159515 0 0 1 7.346424 0l67.188364 53.744485c2.024727 1.629091 2.024727 4.266667 0 5.880243a6.159515 6.159515 0 0 1-7.346424 0l-67.188364-53.744485c-2.024727-1.629091-2.024727-4.266667 0-5.880243z" fill="#D4D4D4" p-id="12098"></path></svg>