<?xml version="1.0" standalone="no"?><!DOCTYPE svg PUBLIC "-//W3C//DTD SVG 1.1//EN" "http://www.w3.org/Graphics/SVG/1.1/DTD/svg11.dtd"><svg height="1024" node-id="1" sillyvg="true" template-height="1024" template-width="1024" version="1.1" viewBox="0 0 1024 1024" width="1024" xmlns="http://www.w3.org/2000/svg" xmlns:xlink="http://www.w3.org/1999/xlink"><defs node-id="56"><mask height="343.03894" id="mask-2" maskUnits="userSpaceOnUse" node-id="20" width="165.29755" x="505.78986" y="518.9945"><path d="M 404.80 655.60 L 514.80 548.00 L 626.70 655.60 L 621.00 655.60 L 622.50 655.80 L 623.90 656.40 L 625.00 657.30 L 626.50 659.80 L 626.70 661.40 L 626.70 790.30 L 626.50 791.80 L 625.00 794.30 L 623.90 795.20 L 622.50 795.80 L 621.00 796.00 L 410.50 796.00 L 407.60 795.20 L 405.60 793.20 L 404.80 790.30 L 404.80 661.40 L 405.00 659.80 L 406.50 657.30 L 409.00 655.80 L 410.50 655.60 L 404.80 655.60 Z" fill="#ffffff" fill-rule="evenodd" node-id="61" stroke="none" target-height="248" target-width="221.90002" target-x="404.8" target-y="548"></path></mask><mask height="209.95361" id="mask-4" maskUnits="userSpaceOnUse" node-id="25" width="185.95972" x="504.068" y="522.43634"><path d="M 528.80 549.10 L 658.00 678.20 L 660.60 682.00 L 661.70 686.20 L 661.30 690.60 L 660.60 692.70 L 658.00 696.40 L 654.20 699.10 L 649.90 700.20 L 645.60 699.80 L 643.50 699.10 L 639.70 696.40 L 519.70 576.50 L 399.60 696.40 L 395.90 699.10 L 391.60 700.20 L 387.20 699.80 L 385.10 699.10 L 383.20 697.90 L 381.40 696.40 L 379.90 694.60 L 378.80 692.70 L 377.60 688.40 L 378.00 684.00 L 378.80 682.00 L 381.40 678.20 L 510.50 549.10 L 512.60 547.40 L 514.80 546.20 L 517.20 545.50 L 519.70 545.30 L 522.20 545.50 L 524.60 546.20 L 526.80 547.40 L 528.80 549.10 Z" fill="#ffffff" fill-rule="evenodd" node-id="68" stroke="none" target-height="154.90002" target-width="284.1" target-x="377.6" target-y="545.3"></path></mask></defs><g node-id="103"><path d="M 0.00 0.00 L 1024.00 0.00 L 1024.00 1024.00 L 0.00 1024.00 Z" fill="#f15454" fill-opacity="0" fill-rule="evenodd" group-id="1" id="矩形备份" node-id="8" stroke="none" target-height="1024" target-width="1024" target-x="0" target-y="0"></path></g><path d="M 307.90 884.60 L 297.60 879.60 L 287.40 874.10 L 277.20 868.10 L 267.10 861.60 L 257.00 854.60 L 247.30 847.20 L 237.70 839.40 L 228.30 831.20 L 218.90 822.50 L 209.60 813.40 L 198.40 801.70 L 187.50 789.50 L 176.90 776.70 L 166.50 763.30 L 156.60 749.60 L 147.00 735.60 L 137.70 721.20 L 128.80 706.30 L 120.30 691.20 L 112.30 675.90 L 104.70 660.40 L 97.50 644.60 L 90.70 628.70 L 84.40 612.60 L 78.70 596.60 L 73.40 580.40 L 68.60 564.10 L 64.40 547.80 L 60.80 531.70 L 57.70 515.70 L 55.20 499.50 L 53.30 483.70 L 52.00 468.10 L 51.30 452.70 L 51.20 440.30 L 51.60 428.20 L 52.30 416.40 L 53.50 404.90 L 55.20 393.60 L 57.30 382.20 L 59.80 371.30 L 62.90 360.70 L 66.40 350.40 L 70.30 340.40 L 74.80 330.60 L 79.70 321.20 L 85.20 312.20 L 91.20 303.60 L 97.60 295.30 L 103.40 288.80 L 109.50 282.60 L 116.10 276.60 L 123.00 271.00 L 130.40 265.60 L 138.20 260.50 L 146.10 255.90 L 154.40 251.70 L 163.30 247.80 L 172.60 244.20 L 182.50 240.90 L 193.00 238.00 L 203.10 235.70 L 213.80 233.80 L 225.10 232.20 L 237.00 231.00 L 249.60 230.30 L 284.10 229.80 L 304.10 229.00 L 323.10 227.80 L 341.00 226.20 L 359.30 224.00 L 376.60 221.50 L 393.00 218.70 L 408.50 215.60 L 424.20 212.00 L 439.20 208.20 L 466.70 200.00 L 484.60 193.90 L 501.30 187.50 L 516.90 181.10 L 532.40 174.10 L 560.40 160.40 L 580.40 149.80 L 632.70 120.60 L 654.00 109.50 L 664.00 104.80 L 674.20 100.50 L 684.20 96.90 L 693.90 93.90 L 701.30 92.10 L 708.70 90.80 L 716.20 90.00 L 723.70 89.60 L 731.10 89.70 L 738.70 90.40 L 746.50 91.70 L 754.60 93.60 L 762.40 95.90 L 770.50 99.00 L 779.00 102.80 L 788.00 107.40 L 796.50 112.30 L 805.50 118.20 L 815.00 124.90 L 825.20 132.80 L 835.30 141.30 L 845.00 150.20 L 854.40 159.60 L 863.40 169.40 L 872.10 179.70 L 880.30 190.30 L 888.20 201.30 L 895.80 212.60 L 903.00 224.30 L 909.90 236.50 L 916.40 248.70 L 922.50 261.30 L 928.30 274.10 L 933.80 287.30 L 938.90 300.70 L 944.80 317.60 L 950.10 334.90 L 954.90 352.40 L 959.10 370.20 L 962.80 388.10 L 966.00 406.10 L 968.70 424.30 L 970.80 442.60 L 972.30 460.90 L 973.40 479.20 L 973.90 497.40 L 973.90 515.60 L 973.40 533.80 L 972.40 551.80 L 970.80 569.50 L 968.70 587.00 L 966.10 604.50 L 963.00 621.50 L 959.40 638.10 L 955.40 654.40 L 951.70 667.30 L 943.40 692.10 L 933.90 715.50 L 928.60 726.90 L 923.00 737.90 L 917.10 748.40 L 911.00 758.40 L 904.60 768.00 L 896.00 779.70 L 887.00 791.10 L 877.50 802.10 L 867.50 812.70 L 857.10 823.00 L 846.30 832.90 L 835.10 842.40 L 823.40 851.50 L 811.40 860.30 L 798.80 868.60 L 786.10 876.50 L 773.00 883.90 L 759.50 891.00 L 745.60 897.60 L 731.30 903.70 L 716.90 909.40 L 702.20 914.60 L 687.20 919.30 L 671.80 923.50 L 656.10 927.30 L 640.30 930.50 L 624.30 933.20 L 608.00 935.40 L 591.50 937.10 L 574.60 938.20 L 557.80 938.80 L 540.80 938.80 L 523.60 938.30 L 506.10 937.20 L 488.40 935.40 L 470.90 933.20 L 453.20 930.30 L 435.30 926.80 L 417.30 922.70 L 399.00 917.90 L 381.10 912.60 L 363.00 906.70 L 344.80 900.00 L 326.40 892.70 L 307.90 884.60 Z" fill="#f2f8fd" fill-rule="evenodd" id="路径-115" node-id="9" stroke="none" target-height="849.2" target-width="922.7" target-x="51.2" target-y="89.6"></path><g node-id="104"><path d="M 888.40 626.00 L 892.30 626.20 L 895.90 627.00 L 899.40 628.20 L 902.70 629.80 L 905.70 631.80 L 908.40 634.20 L 910.80 637.00 L 912.80 640.00 L 914.50 643.20 L 915.70 646.70 L 916.40 650.40 L 916.70 654.30 L 916.40 658.20 L 915.70 661.80 L 914.50 665.30 L 912.80 668.60 L 910.80 671.60 L 908.40 674.30 L 905.70 676.70 L 902.70 678.70 L 899.40 680.40 L 895.90 681.60 L 892.30 682.30 L 888.40 682.60 L 535.30 682.60 L 531.40 682.30 L 527.80 681.60 L 524.30 680.40 L 521.00 678.70 L 518.00 676.70 L 515.30 674.30 L 512.90 671.60 L 510.90 668.60 L 509.20 665.30 L 508.00 661.80 L 507.30 658.20 L 507.00 654.30 L 507.30 650.40 L 508.00 646.70 L 509.20 643.20 L 510.90 640.00 L 512.90 637.00 L 515.30 634.20 L 518.00 631.80 L 521.00 629.80 L 524.30 628.20 L 527.80 627.00 L 531.40 626.20 L 535.30 626.00 L 888.40 626.00 Z M 682.60 550.40 L 686.50 550.70 L 690.10 551.40 L 693.60 552.70 L 696.90 554.30 L 699.90 556.30 L 702.60 558.70 L 705.00 561.40 L 707.00 564.40 L 708.70 567.70 L 709.90 571.20 L 710.60 574.90 L 710.90 578.80 L 710.60 582.60 L 709.90 586.30 L 708.70 589.80 L 707.00 593.10 L 705.00 596.10 L 702.60 598.80 L 699.90 601.20 L 696.90 603.20 L 693.60 604.80 L 690.10 606.10 L 686.50 606.80 L 682.60 607.10 L 571.20 607.10 L 575.50 606.70 L 579.10 606.00 L 582.50 604.70 L 585.80 603.00 L 588.70 601.00 L 591.40 598.60 L 593.70 595.90 L 595.70 592.90 L 597.30 589.70 L 598.50 586.20 L 599.30 582.60 L 599.50 578.80 L 599.30 574.90 L 598.50 571.20 L 597.30 567.70 L 595.60 564.40 L 593.60 561.40 L 591.20 558.70 L 588.50 556.30 L 585.50 554.30 L 582.20 552.70 L 578.80 551.40 L 575.10 550.70 L 571.20 550.40 Z M 229.50 550.40 L 233.40 550.70 L 237.00 551.40 L 240.50 552.70 L 243.80 554.30 L 246.80 556.30 L 249.50 558.70 L 251.90 561.40 L 253.90 564.40 L 255.60 567.70 L 256.80 571.20 L 257.50 574.90 L 257.80 578.80 L 257.50 582.60 L 256.80 586.30 L 255.60 589.80 L 253.90 593.10 L 251.90 596.10 L 249.50 598.80 L 246.80 601.20 L 243.80 603.20 L 240.50 604.80 L 237.00 606.10 L 233.40 606.80 L 229.50 607.10 L 186.00 607.10 L 182.20 606.80 L 178.50 606.10 L 175.00 604.80 L 171.70 603.20 L 168.70 601.20 L 166.00 598.80 L 163.60 596.10 L 161.60 593.10 L 160.00 589.80 L 158.70 586.30 L 158.00 582.60 L 157.70 578.80 L 158.00 574.90 L 158.70 571.20 L 160.00 567.70 L 161.60 564.40 L 163.60 561.40 L 166.00 558.70 L 168.70 556.30 L 171.70 554.30 L 175.00 552.70 L 178.50 551.40 L 182.20 550.70 L 186.00 550.40 L 229.50 550.40 Z M 552.30 550.40 L 548.40 550.70 L 544.80 551.40 L 541.30 552.70 L 538.00 554.30 L 535.00 556.30 L 532.30 558.70 L 529.90 561.40 L 527.90 564.40 L 526.20 567.70 L 525.00 571.20 L 524.30 574.90 L 524.00 578.80 L 524.30 582.60 L 525.00 586.20 L 526.20 589.70 L 527.80 592.90 L 529.80 595.90 L 532.10 598.60 L 534.80 601.00 L 537.80 603.00 L 541.00 604.70 L 544.40 606.00 L 548.00 606.70 L 552.30 607.10 L 374.80 607.10 L 371.00 606.80 L 367.30 606.10 L 363.80 604.80 L 360.50 603.20 L 357.50 601.20 L 354.80 598.80 L 352.40 596.10 L 350.40 593.10 L 348.80 589.80 L 347.50 586.30 L 346.80 582.60 L 346.50 578.80 L 346.80 574.90 L 347.50 571.20 L 348.80 567.70 L 350.40 564.40 L 352.40 561.40 L 354.80 558.70 L 357.50 556.30 L 360.50 554.30 L 363.80 552.70 L 367.30 551.40 L 371.00 550.70 L 374.80 550.40 L 552.30 550.40 Z M 650.50 474.90 L 654.40 475.20 L 658.00 475.90 L 661.50 477.10 L 664.80 478.80 L 667.80 480.80 L 670.50 483.20 L 672.90 485.90 L 674.90 488.90 L 676.60 492.20 L 677.80 495.70 L 678.50 499.30 L 678.80 503.20 L 678.50 507.10 L 677.80 510.80 L 676.60 514.30 L 674.90 517.50 L 672.90 520.50 L 670.50 523.30 L 667.80 525.70 L 664.80 527.70 L 661.50 529.30 L 658.00 530.50 L 654.40 531.30 L 650.50 531.60 L 297.40 531.60 L 293.50 531.30 L 289.90 530.50 L 286.40 529.30 L 283.10 527.70 L 280.10 525.70 L 277.40 523.30 L 275.00 520.50 L 273.00 517.50 L 271.30 514.30 L 270.10 510.80 L 269.40 507.10 L 269.10 503.20 L 269.40 499.30 L 270.10 495.70 L 271.30 492.20 L 273.00 488.90 L 275.00 485.90 L 277.40 483.20 L 280.10 480.80 L 283.10 478.80 L 286.40 477.10 L 289.90 475.90 L 293.60 475.20 L 297.40 474.90 L 650.50 474.90 Z M 629.70 399.40 L 633.60 399.70 L 637.30 400.40 L 640.80 401.60 L 644.00 403.30 L 647.00 405.30 L 649.80 407.70 L 652.20 410.40 L 654.20 413.40 L 655.80 416.70 L 657.00 420.20 L 657.80 423.80 L 658.00 427.70 L 657.80 431.60 L 657.00 435.30 L 655.80 438.70 L 654.20 442.00 L 652.20 445.00 L 649.80 447.70 L 647.00 450.10 L 644.00 452.20 L 640.80 453.80 L 637.30 455.00 L 633.60 455.80 L 629.70 456.00 L 440.90 456.00 L 437.00 455.80 L 433.40 455.00 L 429.90 453.80 L 426.60 452.20 L 423.60 450.10 L 420.90 447.70 L 418.50 445.00 L 416.50 442.00 L 414.80 438.70 L 413.60 435.30 L 412.90 431.60 L 412.60 427.70 L 412.90 423.80 L 413.60 420.20 L 414.80 416.70 L 416.50 413.40 L 418.50 410.40 L 420.90 407.70 L 423.60 405.30 L 426.60 403.30 L 429.90 401.60 L 433.40 400.40 L 437.00 399.70 L 440.90 399.40 L 629.70 399.40 Z M 780.80 399.40 L 784.70 399.70 L 788.30 400.40 L 791.80 401.60 L 795.10 403.30 L 798.10 405.30 L 800.80 407.70 L 803.20 410.40 L 805.20 413.40 L 806.90 416.70 L 808.10 420.20 L 808.80 423.80 L 809.10 427.70 L 808.80 431.60 L 808.10 435.30 L 806.90 438.70 L 805.20 442.00 L 803.20 445.00 L 800.80 447.70 L 798.10 450.10 L 795.10 452.20 L 791.80 453.80 L 788.30 455.00 L 784.70 455.80 L 780.80 456.00 L 739.20 456.00 L 735.30 455.80 L 731.70 455.00 L 728.20 453.80 L 724.90 452.20 L 721.90 450.10 L 719.20 447.70 L 716.80 445.00 L 714.80 442.00 L 713.10 438.70 L 711.90 435.30 L 711.20 431.60 L 710.90 427.70 L 711.20 423.80 L 711.90 420.20 L 713.10 416.70 L 714.80 413.40 L 716.80 410.40 L 719.20 407.70 L 721.90 405.30 L 724.90 403.30 L 728.20 401.60 L 731.70 400.40 L 735.30 399.70 L 739.20 399.40 L 780.80 399.40 Z M 544.80 323.90 L 548.70 324.10 L 552.30 324.90 L 555.80 326.10 L 559.10 327.80 L 562.10 329.80 L 564.80 332.20 L 567.20 334.90 L 569.20 337.90 L 570.90 341.20 L 572.10 344.60 L 572.80 348.30 L 573.10 352.20 L 572.80 356.10 L 572.10 359.70 L 570.90 363.20 L 569.20 366.50 L 567.20 369.50 L 564.80 372.20 L 562.10 374.60 L 559.10 376.60 L 555.80 378.30 L 552.30 379.50 L 548.70 380.20 L 544.80 380.50 L 356.00 380.50 L 352.10 380.20 L 348.40 379.50 L 344.90 378.30 L 341.70 376.60 L 338.70 374.60 L 335.90 372.20 L 333.50 369.50 L 331.50 366.50 L 329.90 363.20 L 328.70 359.70 L 327.90 356.10 L 327.60 352.20 L 327.90 348.30 L 328.70 344.60 L 329.90 341.20 L 331.50 337.90 L 333.50 334.90 L 335.90 332.20 L 338.70 329.80 L 341.70 327.80 L 344.90 326.10 L 348.40 324.90 L 352.10 324.10 L 356.00 323.90 L 544.80 323.90 Z" fill="#e5f2fb" fill-rule="evenodd" group-id="2" id="形状结合" node-id="11" stroke="none" target-height="358.69998" target-width="759" target-x="157.7" target-y="323.9"></path></g><g node-id="105"><g node-id="106"><path d="M 414.70 489.00 L 721.90 489.00 L 721.90 796.20 L 414.70 796.20 Z" fill="none" group-id="3,4" id="矩形" node-id="14" stroke="none" target-height="307.2" target-width="307.2" target-x="414.7" target-y="489"></path><g node-id="108"><g node-id="110"><g node-id="113"><g node-id="115"><g node-id="119"><g node-id="121"><path d="M 404.80 655.60 L 514.80 548.00 L 626.70 655.60 L 621.00 655.60 L 622.50 655.80 L 623.90 656.40 L 625.00 657.30 L 626.50 659.80 L 626.70 661.40 L 626.70 790.30 L 626.50 791.80 L 625.00 794.30 L 623.90 795.20 L 622.50 795.80 L 621.00 796.00 L 410.50 796.00 L 407.60 795.20 L 405.60 793.20 L 404.80 790.30 L 404.80 661.40 L 405.00 659.80 L 406.50 657.30 L 409.00 655.80 L 410.50 655.60 L 404.80 655.60 Z" fill="#e5f2fb" fill-rule="evenodd" group-id="3,4,6,8,11,13,17,19" node-id="91" stroke="none" target-height="248" target-width="221.90002" target-x="404.8" target-y="548"></path></g><path d="M 519.60 547.60 L 657.30 547.60 L 657.30 833.40 L 519.60 833.40 Z" fill="#cce5f9" fill-rule="evenodd" group-id="3,4,6,8,11,13,17,20" id="矩形" node-id="23" stroke="none" target-height="285.80005" target-width="137.70001" target-x="519.6" target-y="547.6"></path></g><g node-id="120"><g node-id="123"><path d="M 528.80 549.10 L 658.00 678.20 L 660.60 682.00 L 661.70 686.20 L 661.30 690.60 L 660.60 692.70 L 658.00 696.40 L 654.20 699.10 L 649.90 700.20 L 645.60 699.80 L 643.50 699.10 L 639.70 696.40 L 519.70 576.50 L 399.60 696.40 L 395.90 699.10 L 391.60 700.20 L 387.20 699.80 L 385.10 699.10 L 383.20 697.90 L 381.40 696.40 L 379.90 694.60 L 378.80 692.70 L 377.60 688.40 L 378.00 684.00 L 378.80 682.00 L 381.40 678.20 L 510.50 549.10 L 512.60 547.40 L 514.80 546.20 L 517.20 545.50 L 519.70 545.30 L 522.20 545.50 L 524.60 546.20 L 526.80 547.40 L 528.80 549.10 Z" fill="#cce5f9" fill-rule="evenodd" group-id="3,4,6,8,11,13,18,21" node-id="101" stroke="none" target-height="154.90002" target-width="284.1" target-x="377.6" target-y="545.3"></path></g><path d="M 519.60 539.90 L 674.50 539.90 L 674.50 714.90 L 519.60 714.90 Z" fill="#99cbf2" fill-rule="evenodd" group-id="3,4,6,8,11,13,18,22" id="矩形" node-id="28" stroke="none" target-height="175" target-width="154.90002" target-x="519.6" target-y="539.9"></path></g><path d="M 428.70 691.00 L 481.30 691.00 L 482.80 691.20 L 485.40 692.70 L 486.80 695.20 L 487.00 696.70 L 487.00 749.30 L 486.30 752.20 L 485.40 753.40 L 482.80 754.80 L 428.70 755.00 L 427.20 754.80 L 424.60 753.40 L 423.20 750.80 L 422.90 749.30 L 422.90 696.70 L 423.20 695.20 L 424.60 692.70 L 427.20 691.20 L 428.70 691.00 Z" fill="#cce5f9" fill-rule="evenodd" group-id="3,4,6,8,11,13" id="矩形" node-id="29" stroke="none" target-height="64" target-width="64.100006" target-x="422.9" target-y="691"></path><path d="M 581.70 733.10 L 585.00 733.30 L 588.10 733.90 L 591.10 734.90 L 593.80 736.30 L 596.40 738.00 L 600.70 742.40 L 603.80 747.70 L 604.80 750.60 L 605.40 753.70 L 605.70 757.00 L 605.70 796.20 L 557.80 796.20 L 557.80 757.00 L 558.10 753.70 L 558.70 750.60 L 559.70 747.70 L 562.80 742.40 L 567.10 738.00 L 569.70 736.30 L 572.40 734.90 L 575.40 733.90 L 578.50 733.30 L 581.70 733.10 Z" fill="#99cbf2" fill-rule="evenodd" group-id="3,4,6,8,11,13" id="矩形" node-id="30" stroke="none" target-height="63.100037" target-width="47.900024" target-x="557.8" target-y="733.1"></path></g><g node-id="116"><path d="M 339.20 770.60 L 342.40 770.30 L 345.30 769.70 L 348.20 768.60 L 350.80 767.10 L 353.30 765.30 L 355.50 763.20 L 359.10 758.20 L 360.40 755.20 L 361.40 752.20 L 362.00 748.90 L 362.20 745.50 L 362.00 741.00 L 361.10 735.40 L 359.70 729.60 L 357.80 723.50 L 355.50 717.60 L 352.80 712.10 L 350.70 708.70 L 346.50 703.50 L 342.80 701.00 L 339.20 700.20 L 335.60 701.00 L 331.90 703.50 L 327.70 708.70 L 325.60 712.10 L 322.90 717.60 L 320.60 723.50 L 318.70 729.60 L 317.30 735.40 L 316.40 741.00 L 316.20 745.50 L 316.40 748.90 L 317.00 752.20 L 318.00 755.20 L 319.30 758.20 L 322.90 763.20 L 325.10 765.30 L 327.60 767.10 L 330.20 768.60 L 333.10 769.70 L 336.00 770.30 L 339.20 770.60 Z" fill="#cce5f9" fill-rule="evenodd" group-id="3,4,6,8,11,14" id="椭圆形备份" node-id="32" stroke="none" target-height="70.39996" target-width="46" target-x="316.2" target-y="700.2"></path><path d="M 336.80 757.00 L 342.20 757.10 L 343.00 757.90 L 343.20 758.60 L 343.20 794.60 L 343.00 795.20 L 342.20 796.00 L 336.20 796.00 L 335.40 795.20 L 335.20 794.60 L 335.20 758.60 L 335.70 757.40 L 336.80 757.00 Z" fill="#99cbf2" fill-rule="evenodd" group-id="3,4,6,8,11,14" id="矩形" node-id="33" stroke="none" target-height="39" target-width="8" target-x="335.2" target-y="757"></path></g><g node-id="117"><path d="M 377.60 770.60 L 380.80 770.30 L 383.70 769.70 L 386.60 768.60 L 389.20 767.10 L 391.70 765.30 L 393.90 763.20 L 397.50 758.20 L 398.80 755.20 L 399.80 752.20 L 400.40 748.90 L 400.60 745.50 L 400.40 742.00 L 399.80 738.70 L 398.80 735.50 L 397.50 732.50 L 393.90 727.20 L 391.70 724.90 L 389.20 723.00 L 386.60 721.50 L 383.70 720.30 L 380.80 719.60 L 377.60 719.40 L 374.40 719.60 L 371.50 720.30 L 368.60 721.50 L 366.00 723.00 L 363.50 724.90 L 361.30 727.20 L 357.70 732.50 L 356.40 735.50 L 355.40 738.70 L 354.80 742.00 L 354.60 745.50 L 354.80 748.90 L 355.40 752.20 L 356.40 755.20 L 357.70 758.20 L 361.30 763.20 L 363.50 765.30 L 368.60 768.60 L 371.50 769.70 L 374.40 770.30 L 377.60 770.60 Z" fill="#e5f2fb" fill-rule="evenodd" group-id="3,4,6,8,11,15" id="椭圆形备份" node-id="35" stroke="none" target-height="51.19995" target-width="46" target-x="354.6" target-y="719.4"></path><path d="M 375.20 757.00 L 380.60 757.10 L 381.40 757.90 L 381.60 758.60 L 381.60 794.60 L 381.40 795.20 L 380.60 796.00 L 374.60 796.00 L 373.80 795.20 L 373.60 794.60 L 373.60 758.60 L 374.10 757.40 L 375.20 757.00 Z" fill="#cce5f9" fill-rule="evenodd" group-id="3,4,6,8,11,15" id="矩形" node-id="36" stroke="none" target-height="39" target-width="8" target-x="373.6" target-y="757"></path></g></g><g node-id="114"><path d="M 455.70 533.10 L 454.90 535.40 L 452.10 537.90 L 446.40 540.50 L 442.20 541.70 L 435.60 543.20 L 427.50 544.30 L 419.00 545.00 L 409.60 545.30 L 400.20 545.00 L 391.70 544.30 L 383.60 543.20 L 377.00 541.70 L 372.80 540.50 L 367.10 537.90 L 364.30 535.40 L 363.50 533.10 L 364.30 530.80 L 367.10 528.40 L 372.80 525.80 L 377.00 524.50 L 383.60 523.10 L 391.70 521.90 L 400.20 521.20 L 409.60 521.00 L 419.00 521.20 L 427.50 521.90 L 435.60 523.10 L 442.20 524.50 L 446.40 525.80 L 452.10 528.40 L 454.90 530.80 L 455.70 533.10 Z" fill="#cce5f9" fill-rule="evenodd" group-id="3,4,6,8,12" id="椭圆形" node-id="38" stroke="none" target-height="24.299988" target-width="92.20001" target-x="363.5" target-y="521"></path><g node-id="118"><path d="M 410.20 243.20 L 402.40 243.50 L 394.90 244.50 L 387.60 246.00 L 380.50 248.10 L 373.60 250.70 L 367.00 253.90 L 360.70 257.50 L 354.70 261.60 L 349.00 266.20 L 343.70 271.10 L 338.90 276.50 L 334.30 282.20 L 330.30 288.30 L 326.70 294.70 L 323.60 301.30 L 321.00 308.30 L 318.90 315.50 L 317.40 322.90 L 316.50 330.50 L 316.20 338.40 L 316.90 351.80 L 317.90 358.80 L 319.30 366.10 L 321.80 375.70 L 324.90 385.60 L 328.90 396.00 L 336.40 412.40 L 340.90 420.90 L 350.90 437.90 L 356.60 446.70 L 364.20 457.60 L 378.40 476.10 L 384.50 483.40 L 399.20 499.70 L 401.60 501.70 L 404.20 503.10 L 407.10 504.00 L 410.20 504.30 L 413.30 504.00 L 416.20 503.10 L 418.90 501.70 L 421.30 499.70 L 426.10 494.60 L 436.00 483.40 L 449.20 467.10 L 463.90 446.70 L 469.60 437.90 L 479.60 420.90 L 484.10 412.40 L 491.60 396.00 L 495.60 385.60 L 498.70 375.70 L 501.10 366.10 L 502.60 358.80 L 503.50 351.80 L 504.30 338.40 L 504.00 330.50 L 503.10 322.90 L 501.60 315.50 L 499.50 308.30 L 496.90 301.30 L 493.80 294.70 L 490.20 288.30 L 486.10 282.20 L 481.60 276.50 L 476.70 271.10 L 471.50 266.20 L 465.80 261.60 L 459.80 257.50 L 453.50 253.90 L 446.90 250.70 L 439.90 248.10 L 432.90 246.00 L 425.60 244.50 L 418.00 243.50 L 410.20 243.20 Z" fill="#66b2ec" fill-rule="evenodd" group-id="3,4,6,8,12,16" id="路径" node-id="40" stroke="none" target-height="261.09998" target-width="188.09998" target-x="316.2" target-y="243.2"></path><path d="M 410.20 367.50 L 402.60 366.70 L 395.50 364.50 L 391.10 362.30 L 387.10 359.60 L 383.50 356.40 L 380.30 352.80 L 377.60 348.80 L 375.40 344.40 L 373.20 337.40 L 372.40 329.80 L 373.20 322.20 L 375.40 315.10 L 377.60 310.80 L 380.30 306.80 L 383.50 303.20 L 387.10 300.00 L 391.10 297.30 L 395.50 295.10 L 402.60 292.90 L 406.30 292.30 L 410.20 292.10 L 414.20 292.30 L 421.50 293.80 L 424.90 295.10 L 429.30 297.30 L 433.30 300.00 L 437.00 303.20 L 440.20 306.80 L 442.90 310.80 L 445.10 315.20 L 447.30 322.20 L 448.10 329.80 L 447.30 337.50 L 445.10 344.50 L 442.90 348.80 L 440.20 352.80 L 437.00 356.40 L 433.30 359.60 L 429.30 362.30 L 424.90 364.50 L 417.90 366.70 L 410.20 367.50 Z" fill="#ffffff" fill-rule="evenodd" group-id="3,4,6,8,12,16" id="路径" node-id="41" stroke="none" target-height="75.399994" target-width="75.70001" target-x="372.4" target-y="292.1"></path></g></g></g><g node-id="111"><path d="M 698.90 755.20 L 706.40 754.40 L 713.30 752.00 L 719.60 748.40 L 725.10 743.40 L 728.30 739.60 L 730.90 735.40 L 733.10 730.70 L 735.20 723.20 L 736.00 715.10 L 735.70 709.20 L 734.70 702.00 L 733.10 694.50 L 730.90 686.40 L 728.30 678.30 L 722.70 665.40 L 717.60 656.40 L 714.70 652.40 L 711.70 649.10 L 708.70 646.40 L 706.30 644.70 L 703.80 643.50 L 701.40 642.80 L 698.90 642.60 L 696.40 642.80 L 693.90 643.50 L 691.50 644.70 L 689.00 646.40 L 686.00 649.10 L 683.10 652.40 L 680.10 656.40 L 675.00 665.40 L 669.50 678.30 L 666.80 686.40 L 664.60 694.50 L 663.10 702.00 L 662.10 709.20 L 661.80 715.10 L 662.50 723.20 L 664.70 730.70 L 666.90 735.40 L 669.50 739.60 L 672.60 743.40 L 678.10 748.40 L 684.40 752.00 L 687.80 753.40 L 691.40 754.40 L 698.90 755.20 Z" fill="#cce5f9" fill-rule="evenodd" group-id="3,4,6,9" id="椭圆形备份" node-id="43" stroke="none" target-height="112.60004" target-width="74.20001" target-x="661.8" target-y="642.6"></path><path d="M 695.00 733.40 L 703.70 733.60 L 705.10 735.00 L 705.30 736.00 L 705.30 793.60 L 705.10 794.60 L 704.50 795.40 L 702.70 796.20 L 694.00 796.00 L 692.70 794.60 L 692.50 793.60 L 692.50 736.00 L 693.20 734.20 L 695.00 733.40 Z" fill="#99cbf2" fill-rule="evenodd" group-id="3,4,6,9" id="矩形" node-id="44" stroke="none" target-height="62.799988" target-width="12.799988" target-x="692.5" target-y="733.4"></path></g><path d="M 415.00 796.10 L 483.50 788.20 L 513.90 784.40 L 523.80 782.90 L 529.00 781.10 L 532.50 779.50 L 550.10 769.80 L 563.70 763.20 L 570.70 760.70 L 575.40 759.40 L 579.90 758.60 L 584.40 758.30 L 588.80 758.60 L 595.30 759.90 L 599.40 761.60 L 602.50 763.40 L 610.00 768.80 L 612.50 769.60 L 614.30 769.80 L 616.40 769.60 L 619.10 768.90 L 625.40 766.30 L 632.60 762.70 L 636.10 761.80 L 641.40 761.50 L 644.40 761.90 L 649.20 763.10 L 656.60 765.60 L 667.30 769.90 L 682.30 776.70 L 702.70 786.60 L 720.90 796.10 L 415.00 796.10 Z" fill="#e5f2fb" fill-rule="evenodd" group-id="3,4,6" id="路径-201" node-id="45" stroke="none" target-height="37.799988" target-width="305.90002" target-x="415" target-y="758.3"></path><path d="M 405.80 795.60 L 489.50 795.60 L 483.40 787.60 L 478.40 781.80 L 474.40 777.70 L 471.20 775.00 L 468.70 773.40 L 466.70 772.60 L 465.10 772.30 L 462.60 772.60 L 460.80 773.40 L 459.30 774.50 L 456.40 777.90 L 455.50 778.50 L 454.70 778.60 L 453.60 778.00 L 448.00 773.00 L 445.50 771.30 L 442.70 770.00 L 440.60 769.40 L 438.40 769.30 L 435.90 769.60 L 433.20 770.50 L 429.80 772.40 L 425.60 775.40 L 420.30 780.00 L 413.80 786.60 L 405.80 795.60 Z" fill="#99cbf2" fill-rule="evenodd" group-id="3,4,6" id="路径-200" node-id="46" stroke="none" target-height="26.299988" target-width="83.70001" target-x="405.8" target-y="769.3"></path><path d="M 673.70 796.10 L 768.20 796.10 L 759.70 788.30 L 752.20 782.10 L 745.40 777.10 L 739.40 773.30 L 734.00 770.50 L 729.20 768.60 L 724.80 767.40 L 720.90 766.80 L 717.50 766.90 L 713.80 767.40 L 709.70 768.70 L 705.10 770.60 L 700.10 773.40 L 694.50 777.20 L 688.30 782.10 L 681.40 788.40 L 673.70 796.10 Z" fill="#cce5f9" fill-rule="evenodd" group-id="3,4,6" id="路径-202" node-id="47" stroke="none" target-height="29.299988" target-width="94.5" target-x="673.7" target-y="766.8"></path></g></g><g node-id="107"><path d="M 522.20 227.80 L 829.40 227.80 L 829.40 535.00 L 522.20 535.00 Z" fill="none" group-id="3,5" id="矩形" node-id="49" stroke="none" target-height="307.2" target-width="307.2" target-x="522.2" target-y="227.8"></path><g node-id="109"><path d="M 681.30 369.70 L 682.40 368.60 L 683.80 368.00 L 685.20 368.00 L 686.60 368.60 L 687.70 369.70 L 688.30 371.10 L 688.30 372.50 L 687.70 373.90 L 667.90 402.70 L 652.90 422.90 L 658.80 448.40 L 665.50 481.00 L 665.50 482.60 L 664.90 483.90 L 663.90 484.90 L 662.40 485.50 L 660.90 485.50 L 659.60 485.00 L 658.50 483.90 L 657.90 482.50 L 651.60 451.70 L 646.80 430.30 L 643.00 434.30 L 640.00 436.80 L 634.90 440.00 L 630.10 442.20 L 625.30 443.70 L 620.40 444.70 L 615.70 445.00 L 611.10 444.60 L 607.80 444.00 L 601.50 441.60 L 598.60 439.90 L 595.90 437.80 L 591.50 433.10 L 589.70 430.40 L 587.20 424.40 L 586.10 417.90 L 586.10 414.50 L 587.10 407.50 L 588.30 403.70 L 590.00 399.60 L 592.20 395.80 L 594.60 392.40 L 597.40 389.30 L 600.50 386.60 L 603.80 384.40 L 607.30 382.60 L 611.00 381.30 L 614.80 380.50 L 618.90 380.30 L 622.90 380.70 L 626.80 381.70 L 630.50 383.30 L 634.00 385.50 L 637.40 388.30 L 640.40 391.50 L 643.20 395.40 L 646.20 400.90 L 648.20 406.10 L 650.50 413.60 L 664.70 394.00 L 681.30 369.70 Z M 638.90 403.40 L 636.50 399.20 L 634.00 395.80 L 631.40 393.10 L 628.60 391.10 L 625.50 389.40 L 622.40 388.40 L 619.20 388.00 L 615.80 388.10 L 612.90 388.70 L 610.20 389.70 L 605.00 392.80 L 600.50 397.40 L 596.90 403.00 L 595.50 406.30 L 594.40 410.10 L 593.80 413.50 L 593.70 416.70 L 594.00 419.70 L 594.70 422.70 L 595.80 425.40 L 597.10 427.80 L 598.90 430.10 L 603.20 433.70 L 608.50 436.10 L 611.40 436.80 L 617.70 437.20 L 621.20 436.70 L 624.60 436.00 L 628.10 434.70 L 631.70 433.00 L 635.40 430.70 L 637.50 429.00 L 644.50 421.10 L 641.30 409.70 L 638.90 403.40 Z" fill="#cce5f9" fill-rule="evenodd" group-id="3,5,7" id="路径-203" node-id="51" stroke="none" target-height="117.5" target-width="102.20001" target-x="586.1" target-y="368"></path><g node-id="112"><path d="M 672.50 301.20 L 702.70 328.20 L 702.20 352.00 L 724.70 350.80 L 744.80 368.80 L 796.40 258.90 Z" fill="#cce5f9" fill-rule="evenodd" group-id="3,5,7,10" id="路径-204" node-id="53" stroke="none" target-height="109.899994" target-width="123.900024" target-x="672.5" target-y="258.9"></path><path d="M 702.20 352.00 L 796.40 258.90 L 702.70 328.20 Z" fill="#99cbf2" fill-rule="evenodd" group-id="3,5,7,10" id="路径-205" node-id="54" stroke="none" target-height="93.100006" target-width="94.20001" target-x="702.2" target-y="258.9"></path></g></g></g></g></svg>