<?xml version="1.0" standalone="no"?><!DOCTYPE svg PUBLIC "-//W3C//DTD SVG 1.1//EN" "http://www.w3.org/Graphics/SVG/1.1/DTD/svg11.dtd"><svg t="1726204645844" class="icon" viewBox="0 0 1024 1024" version="1.1" xmlns="http://www.w3.org/2000/svg" p-id="6880" xmlns:xlink="http://www.w3.org/1999/xlink" width="48" height="48"><path d="M512 0c282.453333 0 512 229.546667 512 512s-229.546667 512-512 512S0 794.453333 0 512C0.853333 229.546667 229.546667 0.853333 512 0z m115.2 505.173333c44.373333-38.4 76.8-89.6 76.8-153.6C705.706667 247.466667 622.933333 162.133333 518.826667 160.426667H512c-104.106667-1.706667-190.293333 81.066667-192 185.173333v6.826667c0 64 32.426667 115.2 76.8 153.6A287.914667 287.914667 0 0 0 223.573333 768c-0.853333 17.066667 11.946667 30.72 28.16 32.426667h3.413334c17.066667 0.853333 30.72-11.946667 32.426666-28.16v-3.413334c1.706667-123.733333 101.546667-223.573333 224.426667-224.426666 122.88 0.853333 222.72 100.693333 223.573333 223.573333 0 17.92 14.506667 32.426667 32.426667 32.426667s32.426667-14.506667 32.426667-32.426667c-0.853333-114.346667-69.12-216.746667-173.226667-262.826667z m-115.2-25.6c-70.826667 0-128-57.173333-128-128s57.173333-128 128-128 128 57.173333 128 128-57.173333 128-128 128z" fill="#DBDADA" p-id="6881"></path></svg>