<?xml version="1.0" standalone="no"?><!DOCTYPE svg PUBLIC "-//W3C//DTD SVG 1.1//EN" "http://www.w3.org/Graphics/SVG/1.1/DTD/svg11.dtd"><svg t="1726823939222" class="icon" viewBox="0 0 1024 1024" version="1.1" xmlns="http://www.w3.org/2000/svg" p-id="11929" xmlns:xlink="http://www.w3.org/1999/xlink" width="48" height="48"><path d="M601.69552198 641.10505056a20.25564989 20.25564989 0 0 0-20.58053175 15.0434216v3.31944068a70.76764822 70.76764822 0 0 1-141.53529565 0v-4.20933326a22.13431201 22.13431201 0 0 0-19.69063917-14.15352902H221.93739526l74.35546874-116.40642483s11.07421875-20.90541284 27.88330078-20.25564989h376.87656959c13.17888499 0 15.39655446 4.76021925 24.90286669 20.25564989l75.35836378 116.39229933H601.69552198z" fill="#E4E4E4" p-id="11930"></path><path d="M809.05461741 882.54844458H214.19674269A55.32871803 55.32871803 0 0 1 158.86802466 827.21972656V646.96704102a55.34284352 55.34284352 0 0 1 8.74354761-29.7619629l88.18411668-136.32306813a55.32871803 55.32871803 0 0 1 46.26028933-25.22774777h418.81452244a55.32871803 55.32871803 0 0 1 46.24616384 25.11474609l88.52312328 136.32306736a55.37109375 55.37109375 0 0 1 8.85655005 29.87496535v180.57756662a55.32871803 55.32871803 0 0 1-55.44172047 55.00383694zM302.05597828 477.78857422a33.19440602 33.19440602 0 0 0-27.67142213 15.04342237l-87.85923561 136.30894263c-3.39006663 5.33935547-5.19810278 11.51210228-5.19810201 17.8261018v180.57756662a33.19440602 33.19440602 0 0 0 33.19440525 33.19440603h594.53299364a33.19440602 33.19440602 0 0 0 33.19440602-33.19440603V647.08004347a33.19440602 33.19440602 0 0 0-5.31110524-17.81197706l-88.52312328-136.45019532a33.19440602 33.19440602 0 0 0-27.65729664-15.02929687H302.05597828z" fill="#E4E4E4" p-id="11931"></path><path d="M497.8747212 144.74274587m14.1252788-1e-8l0 0q14.1252788 0 14.1252788 14.1252788l1e-8 169.5033479q0 14.1252788-14.12527881 14.12527956l0 0q-14.1252788 0-14.1252788-14.12527956l-1e-8-169.50334789q0-14.1252788 14.12527881-14.1252788Z" fill="#E4E4E4" p-id="11932"></path><path d="M780.37994258 197.45613372m12.23285039 7.0626394l0 0q12.23285039 7.06263939 5.17021099 19.29549056l-70.62639476 122.32850389q-7.06263939 12.23285039-19.29549055 5.170211l0 0q-12.23285039-7.06263939-5.170211-19.2954898l70.62639553-122.32850466q7.06263939-12.23285039 19.29548979-5.17021099Z" fill="#E4E4E4" p-id="11933"></path><path d="M243.61544033 197.45737122m-12.23285038 7.0626394l0 0q-12.23285039 7.06263939-5.17021101 19.29548979l70.62639553 122.32850467q7.06263939 12.23285039 19.29548981 5.17021099l0 0q12.23285039-7.06263939 5.17021098-19.29548979l-70.62639476-122.32850467q-7.06263939-12.23285039-19.29549055-5.17021099Z" fill="#E4E4E4" p-id="11934"></path></svg>