<?xml version="1.0" standalone="no"?><!DOCTYPE svg PUBLIC "-//W3C//DTD SVG 1.1//EN" "http://www.w3.org/Graphics/SVG/1.1/DTD/svg11.dtd"><svg t="1726975566800" class="icon" viewBox="0 0 1024 1024" version="1.1" xmlns="http://www.w3.org/2000/svg" p-id="13819" xmlns:xlink="http://www.w3.org/1999/xlink" width="48" height="48"><path d="M1003.52 925.696c0 48.64-221.184 88.064-493.568 88.064s-493.568-39.424-493.568-88.064 221.184-88.064 493.568-88.064 493.568 39.936 493.568 88.064" fill="#EAEAEA" p-id="13820"></path><path d="M973.824 560.128c-2.56 0-5.12-2.56-5.12-5.12V475.648c0-2.56 2.56-5.12 5.12-5.12s5.12 2.56 5.12 5.12v79.36c0 3.072-2.56 5.12-5.12 5.12" fill="#9C9C9C" p-id="13821"></path><path d="M928.768 520.704c0-3.072 2.56-5.12 5.12-5.12h78.848c2.56 0 5.12 2.56 5.12 5.12 0 3.072-2.56 5.12-5.12 5.12h-78.336c-3.072 0-5.632-2.56-5.632-5.12M46.592 646.144c-2.56 0-5.12-2.56-5.12-5.12v-79.872c0-2.56 2.56-5.12 5.12-5.12s5.12 2.56 5.12 5.12v79.36c0.512 3.584-2.048 5.632-5.12 5.632" fill="#9C9C9C" p-id="13822"></path><path d="M2.048 606.208c0-3.072 2.56-5.12 5.12-5.12h78.336c2.56 0 5.12 2.56 5.12 5.12 0 3.072-2.56 5.12-5.12 5.12H7.168c-2.56 0.512-5.12-2.048-5.12-5.12m166.4-385.536c-1.024 0-2.048-1.024-2.048-2.048v-33.28c0-1.024 1.024-2.048 2.048-2.048s2.048 1.024 2.048 2.048v32.768c0.512 1.536-0.512 2.56-2.048 2.56" fill="#9C9C9C" p-id="13823"></path><path d="M150.016 202.24c0-1.536 1.024-2.048 2.048-2.048H184.32c1.024 0 2.048 1.024 2.048 2.048 0 1.536-1.024 2.048-2.048 2.048h-32.256c-1.024 0.512-2.048-0.512-2.048-2.048m556.032-12.288l-20.992-38.912-38.912-20.992 38.912-20.992 20.992-38.912 20.992 38.912 38.912 20.992-38.912 20.992-20.992 38.912z m-53.248-59.904l34.304 18.944 18.944 34.304 18.944-34.304 34.304-18.944-34.304-18.944L706.56 76.8l-18.944 34.304-34.816 18.944z" fill="#9C9C9C" p-id="13824"></path><path d="M946.176 302.592l17.408 31.744 31.744 17.408-31.744 17.408-17.408 31.744-17.408-31.744-31.744-17.408 31.744-17.408c0-0.512 17.408-31.744 17.408-31.744z" fill="#FFFFFF" p-id="13825"></path><path d="M946.176 415.744l-19.456-35.328-35.328-19.456 35.328-19.456 19.456-35.328 19.456 35.328 35.328 19.456-35.328 19.456c0 0.512-19.456 35.328-19.456 35.328z m-43.008-54.272l27.648 15.36 15.36 27.648 15.36-27.648 27.648-15.36-27.648-15.36-15.36-27.648-15.36 27.648-27.648 15.36zM509.952 136.704l-6.144-11.776-11.776-6.144 11.776-6.144 6.144-11.776 6.144 11.776 11.776 6.144-11.776 6.144c0 0.512-6.144 11.776-6.144 11.776zM496.64 119.296l8.704 4.608 5.12 8.704 5.12-8.704 8.704-4.608-8.704-4.608-5.12-8.704-5.12 8.704c-0.512 0-8.704 4.608-8.704 4.608z" fill="#9C9C9C" p-id="13826"></path><path d="M833.024 779.264c0-45.056-26.624-87.552-67.584-107.008l-169.984-81.92v-18.432c58.88-35.328 96.256-104.448 96.256-179.2 0-112.64-81.92-203.776-182.272-203.776-100.864 0-182.272 91.648-182.272 203.776 0 74.752 37.376 143.872 96.256 179.2v18.432l-169.984 81.92c-40.96 19.968-67.584 61.952-67.584 107.52v53.248h647.68l-0.512-53.76z m-34.304 17.92H221.184l-0.512-18.432c0-32.256 18.944-61.952 48.128-75.776l189.44-91.136v-61.44l-9.216-5.12c-52.736-27.648-86.528-87.552-86.528-153.6 0-92.672 66.048-168.96 147.456-168.96 81.92 0 147.456 75.776 147.456 168.96 0 66.048-33.792 126.464-86.528 153.6l-9.216 5.12v61.44l189.44 91.136c29.184 13.824 48.128 43.52 48.128 75.776v18.432z" fill="#DDDDDD" p-id="13827"></path></svg>